<?xml version="1.0" encoding="utf-8"?>
<!-- Generator: Adobe Illustrator 19.2.1, SVG Export Plug-In . SVG Version: 6.00 Build 0)  -->
<svg version="1.1" id="Layer_1" xmlns="http://www.w3.org/2000/svg" xmlns:xlink="http://www.w3.org/1999/xlink" x="0px" y="0px"
	 viewBox="0 0 490.1 117" style="enable-background:new 0 0 490.1 117;" xml:space="preserve">
<style type="text/css">
	.st0{fill:#FFFFFF;}
</style>
<g>
	<g>
		<g id="XMLID_32_">
			<g>
				<path id="XMLID_41_" class="st0" d="M465.9,34.6V20.8h-5.2V19h12.4v1.8h-5.2v13.8H465.9z"/>
				<path id="XMLID_39_" class="st0" d="M475.2,34.6V19h3.1l3.7,11.1c0.3,1,0.6,1.8,0.7,2.2c0.1-0.6,0.4-1.4,0.8-2.5l3.8-10.8h2.8
					v15.6h-2V21.5l-4.5,13.1h-1.8l-4.5-13.4v13.4H475.2z"/>
			</g>
		</g>
		<g id="XMLID_11_">
			<path id="XMLID_60_" class="st0" d="M36.8,3.4c-0.3,0-0.4,0-0.7,0h-0.1c-10.4,0-19.4,3.5-25.7,9.8S0.1,28.5,0.1,39.4
				c0,10.5,3.8,19.4,10.1,25.6s15.3,9.7,25.7,9.7C57,74.4,72.2,60,72.2,38.9l0,0l0,0c0-10.7-3.7-19.5-9.8-25.9
				C56,6.9,47.2,3.4,36.8,3.4z M36.1,62.3h-0.3c-13.1-0.1-21.7-10.1-21.7-23.8c0-12.8,8.7-22.8,21.9-22.9c13.4,0,21.9,10,22.1,22.9
				C58.1,52.3,49.4,62.3,36.1,62.3z M110.7,0.7c-2.4-0.4-4.8-0.7-7.3-0.7l0,0c-7,0-11.7,2.1-14.2,6C86.5,9.8,86,15.2,86,21.5V27
				h-9.3v11.2H86v35.4h12.9V38.1h10.4V26.9H98.9v-7.3c0-2.4,0.3-4.6,1.1-6c0.8-1.4,2.2-2.4,5.2-2.4c1.5,0,3,0.3,4.5,0.7h0.3l0.7,0.1
				l0.8-11.2L110.7,0.7L110.7,0.7z M148.8,0.7C146.4,0.3,144,0,141.5,0l0,0c-7,0-11.7,2.1-14.2,6c-2.7,3.8-3.2,9.1-3.2,15.5V27h-9.3
				v11.2h9.3v35.4H137V38.1h10.4V26.9h-10.5v-7.3c0-2.4,0.3-4.6,1.1-6c0.8-1.4,2.2-2.4,5.2-2.4c1.5,0,3,0.3,4.5,0.7h0.3l0.7,0.1
				l0.8-11.2L148.8,0.7z M234.3,26.3c-1.4-0.4-2.7-0.7-4.2-0.7l0,0l0,0c-5.2,0-9.8,2.4-12.7,6.3v-5.2h-12.9v0.8v45.8h12.9v-25
				c0-1.1,0.4-3.8,2-6c1.5-2.4,4.2-4.4,9.3-4.4c1.7,0,3.4,0.4,5.2,0.8h0.3l0.7,0.1V26.4L234.3,26.3L234.3,26.3z M278.2,58.6
				c0-4.5-1.7-7.7-4.1-9.8c-2.4-2.1-5.6-3.2-8.7-3.9l-0.1,0.6l0.1-0.6c-3.1-0.7-6-1.3-8.2-2c-1.1-0.4-2-0.8-2.5-1.3
				c-0.6-0.6-0.8-1-0.8-1.8l0,0l0,0l0,0c0-1.4,0.7-2.2,1.8-3c1.1-0.7,2.5-1,3.9-1c3.7,0,6,1.4,8.2,4.2l0.1,0.1l0.4,0.6l0.7-0.6
				l8-7.3l-0.4-0.6c-3.9-5.2-10.5-7.2-16.7-7.2c-4.6,0-9.4,1.1-12.9,3.7s-6,6.3-6,11.7l0,0c0,4.5,1.7,7.6,4.1,9.6s5.6,3,8.7,3.8
				c3.1,0.7,6,1.3,8.2,2.1s3.2,1.8,3.4,3.7c0,0,0,0,0,0.1c0,1.4-0.8,2.4-2.1,3.1c-1.3,0.7-3.1,1.1-4.5,1.1c-4.5,0-7.2-2.1-10.1-5.2
				l-0.1-0.1l-0.4-0.4l-8.7,8.2l0.6,0.6c4.8,5.3,11,7.2,18.1,7.2l0,0l0,0c4.6,0,9.7-1,13.5-3.4C275.5,68.2,278.3,64.3,278.2,58.6
				L278.2,58.6z"/>
			<path id="XMLID_15_" class="st0" d="M290.6,60.9c-3.2,0-5.9,2.7-5.9,5.9c0,3.2,2.8,5.9,5.9,5.9s5.9-2.7,5.9-5.9l0,0
				C296.5,63.6,293.8,60.9,290.6,60.9z M323.9,33.7c4.4,0,7.9,1.5,10.8,5.2l0.1,0.1l0.1-0.1l6-5.3l-0.1-0.1c-4.5-4.8-10.5-7-17-7
				c-6.7,0-12.5,2.4-16.6,6.6c-4.1,4.1-6.3,10-6.3,16.7s2.2,12.7,6.3,16.7c4.1,4.1,9.7,6.5,16.6,6.5c6.5,0,12.5-2.1,16.7-7.2
				l0.1-0.1l-5.8-5.5l-0.1,0.3c-2.7,3.7-6.2,5.3-11,5.3c-8.7,0-14.6-7.2-14.6-16S314.2,33.7,323.9,33.7z M365.2,26.6
				c-6.7,0-12.7,2.4-16.9,6.5c-4.2,4.1-6.7,10-6.7,16.9c0,6.9,2.5,12.7,6.7,16.9c4.2,4.1,10.1,6.5,16.9,6.5l0,0
				c6.7,0,12.7-2.4,16.9-6.5s6.7-10,6.7-16.9s-2.5-12.7-6.7-16.9C377.9,29,372,26.6,365.2,26.6z M365.2,65.9c-9.3,0-15.3-7-15.3-16
				c0-9.1,6-16,15.3-16s15.3,7,15.3,16S374.5,65.9,365.2,65.9z M455.1,32.2c-2.7-3.2-6.9-5.1-13.2-5.1c-6.6,0-10.7,3.1-13.8,8.2
				c-1.5-3.1-4.8-8.2-13.9-8.2c-7,0-12.4,3.8-14.6,8c0-2.2-0.1-4.5-0.1-6.6v-0.3h-7.5v0.3c0,3,0.4,6.3,0.4,10.4v33.6h7.7V51
				c0-10,4.1-16.6,13.4-16.6c5.9,0,8.2,3.5,8.2,13.2v25h7.7V47.1c0-7.7,5.1-12.7,11.1-12.7c8.4,0,10.4,5.8,10.4,11.8v26.3h7.7V45.7
				C458.7,40.1,457.7,35.4,455.1,32.2z"/>
			<path id="XMLID_12_" class="st0" d="M187.1,53.1l-0.3,0.6l-0.1,0.1c-1.5,4.1-4.1,7.3-9.1,9c-1,0.3-2,0.6-3,0.6
				c-4.2,0.3-8.2-1.5-10.4-5.8l32.5-10.5l-1.3-3.7c-4.1-12.8-12.9-19.3-23.1-18.4l0,0l0,0c-1.8,0.1-3.7,0.6-5.5,1.1
				c-11.4,3.7-18.7,13.6-17.7,25l0,0c0.1,2,0.6,3.9,1.3,5.9c3.8,11.7,14.1,17.7,25.2,16.7l0,0l0,0c2.1-0.1,4.2-0.6,6.5-1.3
				c6.9-2.2,12.8-6.9,15.7-14.9l0.1-0.1l0.3-0.6L187.1,53.1z M161.2,47.5c-0.4-5.3,2-9.4,7.5-11.2c1.1-0.4,2.2-0.6,3.2-0.7
				c4.5-0.3,7.9,1.7,9.6,6l-20.1,6.6C161.2,47.9,161.2,47.8,161.2,47.5z"/>
		</g>
	</g>
	<g>
		<path class="st0" d="M20,98.6L25,89h3.7l-7,12.8v8.2h-3.4v-8L11.3,89H15L20,98.6z"/>
		<path class="st0" d="M44.8,101.9c0,2.5-0.7,4.6-2,6c-1.3,1.4-3.2,2.1-5.5,2.1c-1.5,0-2.8-0.3-3.9-1c-1.1-0.7-2-1.7-2.7-2.8
			c-0.6-1.3-1-2.7-1-4.4c0-2.5,0.7-4.6,2-6c1.3-1.4,3.2-2.1,5.6-2.1c2.2,0,4.1,0.7,5.5,2.2C44.2,97.6,44.8,99.5,44.8,101.9z
			 M33.2,101.9c0,3.7,1.4,5.5,4.1,5.5s4.1-1.8,4.1-5.5s-1.4-5.5-4.1-5.5c-1.4,0-2.4,0.4-3.1,1.4C33.7,98.8,33.2,100.2,33.2,101.9z"
			/>
		<path class="st0" d="M61.2,110l-0.4-2.1h-0.1c-0.4,0.7-1.1,1.3-2,1.7c-0.8,0.4-1.8,0.6-3,0.6c-2,0-3.4-0.4-4.4-1.4
			c-1-1-1.4-2.4-1.4-4.4V93.9h3.4v9.7c0,1.3,0.3,2.1,0.7,2.7c0.6,0.6,1.3,0.8,2.4,0.8c1.4,0,2.4-0.4,3.1-1.3c0.7-0.8,1-2.2,1-4.2
			v-7.9h3.4v15.9h-2.7V110z"/>
		<path class="st0" d="M77.8,93.8c0.7,0,1.3,0,1.7,0.1L79.2,97c-0.4-0.1-1-0.1-1.5-0.1c-1.4,0-2.4,0.4-3.2,1.3
			c-0.8,0.8-1.3,2-1.3,3.4v8.3h-3.4V93.9h2.7l0.4,2.8H73c0.6-1,1.3-1.7,2.1-2.2C76,94.1,76.8,93.8,77.8,93.8z"/>
		<path class="st0" d="M107.2,95.3c0,2.2-0.7,3.8-2.1,5.1c-1.4,1.1-3.5,1.7-6.2,1.7h-2.1v7.9h-3.4V89h6c2.7,0,4.6,0.6,5.9,1.5
			C106.6,91.7,107.2,93.2,107.2,95.3z M96.8,99.3h1.8c1.7,0,3.1-0.3,3.9-1c0.8-0.7,1.3-1.5,1.3-2.8c0-1.3-0.4-2.1-1.1-2.7
			c-0.7-0.6-1.8-0.8-3.4-0.8h-2.4v7.3H96.8z"/>
		<path class="st0" d="M115.5,110h-3.4V87.6h3.4V110z"/>
		<path class="st0" d="M131.4,110l-0.7-2.2h-0.1c-0.7,1-1.5,1.7-2.2,2c-0.8,0.3-1.8,0.6-3,0.6c-1.5,0-2.8-0.4-3.7-1.3
			s-1.3-2-1.3-3.5c0-1.7,0.6-2.8,1.8-3.7c1.3-0.8,3.1-1.3,5.5-1.4l2.7-0.1v-0.8c0-1-0.3-1.8-0.7-2.2c-0.4-0.6-1.3-0.7-2.2-0.7
			c-0.8,0-1.5,0.1-2.4,0.4c-0.7,0.3-1.4,0.6-2.1,0.8l-1.1-2.4c0.8-0.4,1.8-0.8,2.8-1c1-0.1,2-0.3,3-0.3c2,0,3.5,0.4,4.5,1.3
			c1,0.8,1.5,2.2,1.5,4.1v10.7h-2.2V110z M126.5,107.7c1.3,0,2.2-0.3,3-1c0.7-0.7,1.1-1.7,1.1-2.8v-1.4l-2,0.1
			c-1.5,0-2.7,0.3-3.5,0.8c-0.8,0.6-1.1,1.3-1.1,2.1c0,0.7,0.1,1.3,0.6,1.7C124.9,107.4,125.6,107.7,126.5,107.7z"/>
		<path class="st0" d="M146.3,110.2c-2.4,0-4.2-0.7-5.5-2.1s-1.8-3.4-1.8-6c0-2.7,0.7-4.8,2-6.2c1.3-1.4,3.2-2.1,5.6-2.1
			c1.7,0,3.2,0.3,4.5,1l-1,2.7c-1.4-0.6-2.5-0.8-3.5-0.8c-2.7,0-4.1,1.8-4.1,5.5c0,1.8,0.3,3.1,1,3.9c0.7,0.8,1.7,1.4,3,1.4
			c1.5,0,3-0.4,4.2-1.1v3c-0.6,0.4-1.3,0.6-2,0.7C148.1,110.1,147.3,110.2,146.3,110.2z"/>
		<path class="st0" d="M162.5,110.2c-2.5,0-4.4-0.7-5.8-2.1c-1.4-1.4-2.1-3.4-2.1-5.9c0-2.5,0.7-4.6,2-6c1.3-1.5,3.1-2.2,5.3-2.2
			c2.1,0,3.8,0.7,4.9,2c1.1,1.3,1.8,3,1.8,5.2v1.8h-10.5c0,1.5,0.4,2.7,1.3,3.5c0.8,0.8,1.8,1.3,3.4,1.3c1,0,1.8-0.1,2.7-0.3
			c0.8-0.1,1.7-0.4,2.5-0.8v2.7c-0.8,0.4-1.7,0.7-2.5,0.8C164.4,110.1,163.4,110.2,162.5,110.2z M161.8,96.3c-1.1,0-2,0.3-2.5,1
			c-0.7,0.7-1,1.7-1.1,3h7.2c0-1.3-0.3-2.2-1-3C163.6,96.6,162.9,96.3,161.8,96.3z"/>
		<path class="st0" d="M188.9,107.6c0.8,0,1.7-0.1,2.5-0.4v2.5c-0.4,0.1-0.8,0.3-1.4,0.4c-0.6,0.1-1.3,0.1-1.8,0.1
			c-3.2,0-4.8-1.7-4.8-5.1v-8.6h-2.1V95l2.4-1.3l1.1-3.4h2.1v3.5h4.5v2.5h-4.5v8.4c0,0.8,0.1,1.4,0.6,1.8
			C187.6,107.3,188.2,107.6,188.9,107.6z"/>
		<path class="st0" d="M209.7,101.9c0,2.5-0.7,4.6-2,6c-1.3,1.4-3.2,2.1-5.5,2.1c-1.5,0-2.8-0.3-3.9-1c-1.1-0.7-2-1.7-2.7-2.8
			c-0.6-1.3-1-2.7-1-4.4c0-2.5,0.7-4.6,2-6c1.3-1.4,3.2-2.1,5.6-2.1c2.2,0,4.1,0.7,5.5,2.2C209.1,97.6,209.7,99.5,209.7,101.9z
			 M198.2,101.9c0,3.7,1.4,5.5,4.1,5.5c2.7,0,4.1-1.8,4.1-5.5s-1.4-5.5-4.1-5.5c-1.4,0-2.4,0.4-3.1,1.4
			C198.5,98.8,198.2,100.2,198.2,101.9z"/>
		<path class="st0" d="M236.6,104.2c0,1.8-0.7,3.4-2,4.4c-1.4,1.1-3.2,1.5-5.6,1.5c-2.4,0-4.4-0.4-5.8-1.1v-3.2c1,0.4,2,0.8,3.1,1.1
			c1.1,0.3,2.1,0.4,3,0.4c1.4,0,2.4-0.3,3-0.7c0.7-0.6,1-1.3,1-2.1s-0.3-1.4-0.8-2c-0.6-0.6-1.8-1.1-3.7-2c-2-0.8-3.2-1.7-4.1-2.7
			c-0.8-1-1.1-2.2-1.1-3.5c0-1.7,0.6-3.1,1.8-4.1c1.3-1,3-1.5,5.1-1.5c2,0,3.9,0.4,6,1.3l-1.1,2.8c-1.8-0.8-3.5-1.1-4.9-1.1
			c-1.1,0-2,0.3-2.5,0.7c-0.6,0.4-0.8,1.1-0.8,2c0,0.6,0.1,1,0.3,1.4c0.1,0.4,0.6,0.7,1.1,1.1c0.6,0.3,1.4,0.8,2.8,1.4
			c1.5,0.7,2.7,1.3,3.4,1.8c0.7,0.6,1.3,1.1,1.5,1.8C236.4,102.5,236.6,103.3,236.6,104.2z"/>
		<path class="st0" d="M251.9,110l-0.7-2.2H251c-0.7,1-1.5,1.7-2.2,2c-0.8,0.3-1.8,0.6-3,0.6c-1.5,0-2.8-0.4-3.7-1.3
			c-0.8-0.8-1.3-2-1.3-3.5c0-1.7,0.6-2.8,1.8-3.7c1.3-0.8,3.1-1.3,5.5-1.4l2.7-0.1v-0.8c0-1-0.3-1.8-0.7-2.2
			c-0.4-0.6-1.3-0.7-2.2-0.7c-0.8,0-1.5,0.1-2.4,0.4c-0.7,0.3-1.4,0.6-2.1,0.8l-1.1-2.4c0.8-0.4,1.8-0.8,2.8-1c1-0.1,2-0.3,3-0.3
			c2,0,3.5,0.4,4.5,1.3c1,0.8,1.5,2.2,1.5,4.1v10.7h-2.2V110z M246.8,107.7c1.3,0,2.2-0.3,3-1c0.7-0.7,1.1-1.7,1.1-2.8v-1.4l-2,0.1
			c-1.5,0-2.7,0.3-3.5,0.8c-0.8,0.6-1.1,1.3-1.1,2.1c0,0.7,0.1,1.3,0.6,1.7C245.4,107.4,246,107.7,246.8,107.7z"/>
		<path class="st0" d="M263.7,110l-6-15.9h3.5l3.2,9.3c0.6,1.5,0.8,2.8,1,3.8h0.1c0.1-0.7,0.4-2,1-3.8l3.2-9.3h3.5l-6,15.9H263.7z"
			/>
		<path class="st0" d="M283.8,110.2c-2.5,0-4.4-0.7-5.8-2.1s-2.1-3.4-2.1-5.9c0-2.5,0.7-4.6,2-6c1.3-1.5,3.1-2.2,5.3-2.2
			c2.1,0,3.8,0.7,4.9,2c1.1,1.3,1.8,3,1.8,5.2v1.8h-10.5c0,1.5,0.4,2.7,1.3,3.5c0.8,0.8,1.8,1.3,3.4,1.3c1,0,1.8-0.1,2.7-0.3
			c0.8-0.1,1.7-0.4,2.5-0.8v2.7c-0.8,0.4-1.7,0.7-2.5,0.8C285.8,110.1,284.8,110.2,283.8,110.2z M283.1,96.3c-1.1,0-2,0.3-2.5,1
			c-0.7,0.7-1,1.7-1.1,3h7.2c0-1.3-0.3-2.2-1-3C284.9,96.6,284.2,96.3,283.1,96.3z"/>
		<path class="st0" d="M316.6,110h-11.8V89h11.8v3h-8.4v5.8h7.9v2.8h-7.9v6.6h8.4V110z"/>
		<path class="st0" d="M325.6,110l-6-15.9h3.5l3.2,9.3c0.6,1.5,0.8,2.8,1,3.8h0.1c0.1-0.7,0.4-2,1-3.8l3.2-9.3h3.5l-6,15.9H325.6z"
			/>
		<path class="st0" d="M345.7,110.2c-2.5,0-4.4-0.7-5.8-2.1c-1.4-1.4-2.1-3.4-2.1-5.9c0-2.5,0.7-4.6,2-6c1.3-1.5,3.1-2.2,5.3-2.2
			c2.1,0,3.8,0.7,4.9,2c1.1,1.3,1.8,3,1.8,5.2v1.8h-10.5c0,1.5,0.4,2.7,1.3,3.5s1.8,1.3,3.4,1.3c1,0,1.8-0.1,2.7-0.3
			s1.7-0.4,2.5-0.8v2.7c-0.8,0.4-1.7,0.7-2.5,0.8C347.6,110.1,346.7,110.2,345.7,110.2z M345,96.3c-1.1,0-2,0.3-2.5,1
			c-0.7,0.7-1,1.7-1.1,3h7.2c0-1.3-0.3-2.2-1-3C346.8,96.6,346.1,96.3,345,96.3z"/>
		<path class="st0" d="M365.1,93.8c0.7,0,1.3,0,1.7,0.1l-0.3,3.1c-0.4-0.1-1-0.1-1.5-0.1c-1.4,0-2.4,0.4-3.2,1.3
			c-0.8,0.8-1.3,2-1.3,3.4v8.3h-3.4V93.9h2.7l0.4,2.8h0.1c0.6-1,1.3-1.7,2.1-2.2C363.1,94.1,364.1,93.8,365.1,93.8z"/>
		<path class="st0" d="M369.9,94.1h3.7l3.2,9c0.4,1.3,0.8,2.5,1,3.7h0.1c0.1-0.6,0.3-1.1,0.4-2c0.3-0.7,1.4-4.4,3.7-10.7h3.7
			l-6.7,18c-1.3,3.2-3.2,4.9-6.2,4.9c-0.7,0-1.4-0.1-2.1-0.3V114c0.6,0.1,1.1,0.1,1.7,0.1c1.7,0,2.8-1,3.4-2.8l0.6-1.5L369.9,94.1z"
			/>
		<path class="st0" d="M416,99.3c0,3.5-1,6-2.8,7.9c-2,1.8-4.6,2.8-8.3,2.8H399V89h6.5c3.4,0,5.9,0.8,7.7,2.7
			C415,93.5,416,96,416,99.3z M412.3,99.4c0-5.1-2.4-7.5-7-7.5h-3v15.2h2.4C409.8,107,412.3,104.5,412.3,99.4z"/>
		<path class="st0" d="M431,110l-0.7-2.2h-0.1c-0.7,1-1.5,1.7-2.2,2c-0.8,0.3-1.8,0.6-3,0.6c-1.5,0-2.8-0.4-3.7-1.3s-1.3-2-1.3-3.5
			c0-1.7,0.6-2.8,1.8-3.7c1.3-0.8,3.1-1.3,5.5-1.4l2.7-0.1v-0.8c0-1-0.3-1.8-0.7-2.2c-0.4-0.6-1.3-0.7-2.2-0.7
			c-0.8,0-1.5,0.1-2.4,0.4c-0.7,0.3-1.4,0.6-2.1,0.8l-1.1-2.4c0.8-0.4,1.8-0.8,2.8-1c1-0.1,2-0.3,3-0.3c2,0,3.5,0.4,4.5,1.3
			s1.5,2.2,1.5,4.1v10.7H431V110z M426.1,107.7c1.3,0,2.2-0.3,3-1c0.7-0.7,1.1-1.7,1.1-2.8v-1.4l-2,0.1c-1.5,0-2.7,0.3-3.5,0.8
			c-0.8,0.6-1.1,1.3-1.1,2.1c0,0.7,0.1,1.3,0.6,1.7C424.5,107.4,425.2,107.7,426.1,107.7z"/>
		<path class="st0" d="M436.8,94.1h3.7l3.2,9c0.4,1.3,0.8,2.5,1,3.7h0.1c0.1-0.6,0.3-1.1,0.4-2c0.3-0.7,1.4-4.4,3.7-10.7h3.7
			l-6.7,18c-1.3,3.2-3.2,4.9-6.2,4.9c-0.7,0-1.4-0.1-2.1-0.3V114c0.6,0.1,1.1,0.1,1.7,0.1c1.7,0,2.8-1,3.4-2.8l0.6-1.5L436.8,94.1z"
			/>
	</g>
</g>
</svg>
